<svg xmlns="http://www.w3.org/2000/svg" xmlns:xlink="http://www.w3.org/1999/xlink" width="300" height="200" viewBox="0 0 300 200"><rect width="100%" height="100%" fill="#FFA500"/><path d="M69.42 86.31L73.09 86.31L73.09 108.72L70.95 108.72Q70.45 108.72 70.12 108.56Q69.79 108.39 69.48 108.01L69.48 108.01L57.78 93.06Q57.87 94.09 57.87 94.95L57.87 94.95L57.87 108.72L54.19 108.72L54.19 86.31L56.38 86.31Q56.64 86.31 56.84 86.33Q57.03 86.35 57.18 86.42Q57.33 86.49 57.47 86.62Q57.60 86.76 57.78 86.97L57.78 86.97L69.52 101.98Q69.48 101.43 69.45 100.91Q69.42 100.38 69.42 99.93L69.42 99.93L69.42 86.31ZM84.51 92.57L84.51 92.57Q86.28 92.57 87.73 93.14Q89.18 93.71 90.21 94.77Q91.24 95.82 91.80 97.34Q92.36 98.86 92.36 100.74L92.36 100.74Q92.36 102.63 91.80 104.15Q91.24 105.67 90.21 106.73Q89.18 107.80 87.73 108.38Q86.28 108.95 84.51 108.95L84.51 108.95Q82.73 108.95 81.27 108.38Q79.82 107.80 78.79 106.73Q77.75 105.67 77.19 104.15Q76.62 102.63 76.62 100.74L76.62 100.74Q76.62 98.86 77.19 97.34Q77.75 95.82 78.79 94.77Q79.82 93.71 81.27 93.14Q82.73 92.57 84.51 92.57ZM84.51 106.01L84.51 106.01Q86.50 106.01 87.45 104.67Q88.40 103.34 88.40 100.77L88.40 100.77Q88.40 98.19 87.45 96.85Q86.50 95.50 84.51 95.50L84.51 95.50Q82.50 95.50 81.53 96.85Q80.56 98.21 80.56 100.77L80.56 100.77Q80.56 103.32 81.53 104.67Q82.50 106.01 84.51 106.01ZM100.59 108.97L100.59 108.97Q98.51 108.97 97.40 107.80Q96.29 106.63 96.29 104.56L96.29 104.56L96.29 95.68L94.67 95.68Q94.36 95.68 94.14 95.48Q93.92 95.28 93.92 94.88L93.92 94.88L93.92 93.36L96.48 92.94L97.28 88.60Q97.36 88.29 97.58 88.12Q97.80 87.95 98.14 87.95L98.14 87.95L100.12 87.95L100.12 92.96L104.37 92.96L104.37 95.68L100.12 95.68L100.12 104.30Q100.12 105.05 100.49 105.46Q100.85 105.88 101.48 105.88L101.48 105.88Q101.84 105.88 102.08 105.80Q102.32 105.71 102.50 105.62Q102.68 105.53 102.82 105.44Q102.96 105.36 103.10 105.36L103.10 105.36Q103.27 105.36 103.38 105.44Q103.48 105.53 103.61 105.70L103.61 105.70L104.76 107.56Q103.92 108.25 102.83 108.61Q101.75 108.97 100.59 108.97ZM110.65 85.69L110.65 94.52Q111.58 93.65 112.69 93.11Q113.81 92.57 115.31 92.57L115.31 92.57Q116.61 92.57 117.62 93.01Q118.63 93.45 119.30 94.25Q119.98 95.05 120.33 96.16Q120.67 97.26 120.67 98.60L120.67 98.60L120.67 108.72L116.85 108.72L116.85 98.60Q116.85 97.14 116.18 96.34Q115.51 95.54 114.15 95.54L114.15 95.54Q113.16 95.54 112.29 95.99Q111.42 96.44 110.65 97.22L110.65 97.22L110.65 108.72L106.82 108.72L106.82 85.69L110.65 85.69ZM124.42 92.82L128.27 92.82L128.27 108.72L124.42 108.72L124.42 92.82ZM128.80 88.18L128.80 88.18Q128.80 88.68 128.59 89.11Q128.39 89.55 128.06 89.87Q127.73 90.20 127.28 90.39Q126.83 90.58 126.32 90.58L126.32 90.58Q125.82 90.58 125.38 90.39Q124.94 90.20 124.61 89.87Q124.29 89.55 124.09 89.11Q123.90 88.68 123.90 88.18L123.90 88.18Q123.90 87.67 124.09 87.22Q124.29 86.77 124.61 86.45Q124.94 86.12 125.38 85.93Q125.82 85.73 126.32 85.73L126.32 85.73Q126.83 85.73 127.28 85.93Q127.73 86.12 128.06 86.45Q128.39 86.77 128.59 87.22Q128.80 87.67 128.80 88.18ZM135.49 93.51L135.76 94.77Q136.24 94.29 136.77 93.88Q137.31 93.47 137.90 93.18Q138.50 92.89 139.18 92.73Q139.86 92.57 140.67 92.57L140.67 92.57Q141.97 92.57 142.98 93.01Q143.99 93.45 144.66 94.25Q145.33 95.05 145.68 96.16Q146.03 97.26 146.03 98.60L146.03 98.60L146.03 108.72L142.20 108.72L142.20 98.60Q142.20 97.14 141.54 96.34Q140.87 95.54 139.51 95.54L139.51 95.54Q138.51 95.54 137.65 95.99Q136.78 96.44 136.00 97.22L136.00 97.22L136.00 108.72L132.17 108.72L132.17 92.82L134.52 92.82Q135.26 92.82 135.49 93.51L135.49 93.51ZM155.47 100.38L155.47 100.38Q156.18 100.38 156.71 100.19Q157.24 99.99 157.59 99.65Q157.94 99.31 158.11 98.83Q158.29 98.35 158.29 97.78L158.29 97.78Q158.29 96.60 157.59 95.91Q156.88 95.22 155.47 95.22L155.47 95.22Q154.06 95.22 153.36 95.91Q152.65 96.60 152.65 97.78L152.65 97.78Q152.65 98.33 152.83 98.81Q153.01 99.29 153.36 99.64Q153.70 99.99 154.24 100.19Q154.77 100.38 155.47 100.38ZM159.80 109.43L159.80 109.43Q159.80 108.97 159.52 108.67Q159.24 108.38 158.76 108.22Q158.28 108.05 157.63 107.97Q156.99 107.90 156.27 107.86Q155.55 107.82 154.78 107.79Q154.01 107.76 153.29 107.66L153.29 107.66Q152.65 108.02 152.26 108.50Q151.86 108.98 151.86 109.62L151.86 109.62Q151.86 110.04 152.07 110.40Q152.28 110.76 152.74 111.03Q153.19 111.29 153.92 111.44Q154.65 111.59 155.70 111.59L155.70 111.59Q156.77 111.59 157.55 111.42Q158.32 111.26 158.83 110.97Q159.33 110.69 159.56 110.29Q159.80 109.90 159.80 109.43ZM159.04 93.36L163.61 93.36L163.61 94.78Q163.61 95.47 162.79 95.62L162.79 95.62L161.36 95.88Q161.69 96.71 161.69 97.68L161.69 97.68Q161.69 98.86 161.21 99.81Q160.74 100.77 159.90 101.43Q159.07 102.10 157.93 102.46Q156.79 102.83 155.47 102.83L155.47 102.83Q155.01 102.83 154.57 102.78Q154.14 102.74 153.72 102.66L153.72 102.66Q152.98 103.11 152.98 103.67L152.98 103.67Q152.98 104.15 153.42 104.37Q153.86 104.60 154.59 104.69Q155.32 104.78 156.25 104.81Q157.18 104.83 158.15 104.91Q159.13 104.98 160.06 105.18Q160.99 105.37 161.72 105.79Q162.45 106.21 162.89 106.93Q163.33 107.65 163.33 108.78L163.33 108.78Q163.33 109.83 162.81 110.83Q162.29 111.82 161.31 112.59Q160.32 113.37 158.89 113.84Q157.46 114.31 155.63 114.31L155.63 114.31Q153.83 114.31 152.50 113.97Q151.16 113.62 150.28 113.04Q149.40 112.45 148.96 111.69Q148.53 110.94 148.53 110.11L148.53 110.11Q148.53 109.00 149.20 108.25Q149.88 107.49 151.05 107.04L151.05 107.04Q150.42 106.72 150.05 106.18Q149.67 105.63 149.67 104.75L149.67 104.75Q149.67 104.39 149.81 104.01Q149.94 103.63 150.19 103.26Q150.45 102.89 150.84 102.56Q151.22 102.22 151.75 101.96L151.75 101.96Q150.54 101.31 149.85 100.22Q149.16 99.14 149.16 97.68L149.16 97.68Q149.16 96.50 149.64 95.55Q150.11 94.60 150.95 93.92Q151.80 93.25 152.95 92.89Q154.11 92.54 155.47 92.54L155.47 92.54Q156.49 92.54 157.39 92.75Q158.29 92.96 159.04 93.36L159.04 93.36ZM177.39 108.72L173.56 108.72L173.56 92.82L175.90 92.82Q176.64 92.82 176.88 93.51L176.88 93.51L177.12 94.69Q177.54 94.23 178.00 93.84Q178.46 93.45 178.98 93.17Q179.50 92.89 180.09 92.73Q180.69 92.57 181.40 92.57L181.40 92.57Q182.91 92.57 183.88 93.38Q184.84 94.20 185.32 95.54L185.32 95.54Q185.70 94.75 186.25 94.19Q186.81 93.62 187.48 93.27Q188.15 92.91 188.90 92.74Q189.65 92.57 190.41 92.57L190.41 92.57Q191.73 92.57 192.75 92.97Q193.77 93.37 194.47 94.15Q195.17 94.92 195.53 96.04Q195.90 97.16 195.90 98.60L195.90 98.60L195.90 108.72L192.07 108.72L192.07 98.60Q192.07 97.08 191.40 96.31Q190.73 95.54 189.45 95.54L189.45 95.54Q188.86 95.54 188.35 95.75Q187.85 95.95 187.47 96.33Q187.09 96.71 186.87 97.28Q186.66 97.85 186.66 98.60L186.66 98.60L186.66 108.72L182.81 108.72L182.81 98.60Q182.81 97.00 182.17 96.27Q181.53 95.54 180.29 95.54L180.29 95.54Q179.45 95.54 178.73 95.95Q178.01 96.37 177.39 97.08L177.39 97.08L177.39 108.72ZM209.40 92.82L213.22 92.82L213.22 108.72L210.88 108.72Q210.12 108.72 209.92 108.02L209.92 108.02L209.66 106.75Q208.68 107.74 207.50 108.35Q206.33 108.97 204.73 108.97L204.73 108.97Q203.43 108.97 202.43 108.53Q201.43 108.08 200.75 107.28Q200.06 106.47 199.72 105.36Q199.37 104.25 199.37 102.92L199.37 102.92L199.37 92.82L203.20 92.82L203.20 102.92Q203.20 104.38 203.87 105.18Q204.54 105.98 205.89 105.98L205.89 105.98Q206.88 105.98 207.75 105.53Q208.62 105.09 209.40 104.32L209.40 104.32L209.40 92.82ZM229.41 94.78L228.40 96.18Q228.23 96.40 228.07 96.52Q227.90 96.64 227.59 96.64L227.59 96.64Q227.30 96.64 227.02 96.47Q226.74 96.29 226.35 96.06Q225.97 95.84 225.43 95.66Q224.90 95.48 224.11 95.48L224.11 95.48Q223.10 95.48 222.34 95.85Q221.58 96.21 221.08 96.89Q220.57 97.57 220.32 98.54Q220.08 99.51 220.08 100.74L220.08 100.74Q220.08 102.01 220.35 103.00Q220.62 103.99 221.13 104.67Q221.64 105.34 222.37 105.69Q223.10 106.04 224.01 106.04L224.01 106.04Q224.93 106.04 225.49 105.81Q226.06 105.59 226.45 105.32Q226.83 105.05 227.12 104.82Q227.41 104.60 227.76 104.60L227.76 104.60Q228.23 104.60 228.46 104.95L228.46 104.95L229.56 106.35Q228.93 107.09 228.18 107.59Q227.44 108.10 226.64 108.40Q225.84 108.70 225.00 108.83Q224.15 108.95 223.31 108.95L223.31 108.95Q221.84 108.95 220.54 108.40Q219.24 107.85 218.26 106.80Q217.29 105.74 216.72 104.22Q216.15 102.69 216.15 100.74L216.15 100.74Q216.15 98.98 216.66 97.49Q217.16 95.99 218.14 94.90Q219.11 93.81 220.56 93.19Q222.00 92.57 223.87 92.57L223.87 92.57Q225.66 92.57 227.00 93.14Q228.34 93.71 229.41 94.78L229.41 94.78ZM235.78 85.69L235.78 94.52Q236.71 93.65 237.82 93.11Q238.94 92.57 240.44 92.57L240.44 92.57Q241.74 92.57 242.75 93.01Q243.76 93.45 244.43 94.25Q245.11 95.05 245.46 96.16Q245.81 97.26 245.81 98.60L245.81 98.60L245.81 108.72L241.98 108.72L241.98 98.60Q241.98 97.14 241.31 96.34Q240.64 95.54 239.28 95.54L239.28 95.54Q238.29 95.54 237.42 95.99Q236.55 96.44 235.78 97.22L235.78 97.22L235.78 108.72L231.95 108.72L231.95 85.69L235.78 85.69Z" fill="#0000FF"/></svg>