<svg xmlns="http://www.w3.org/2000/svg" xmlns:xlink="http://www.w3.org/1999/xlink" width="300" height="200" viewBox="0 0 300 200"><rect width="100%" height="100%" fill="#808080"/><path d="M73.06 87.19L76.49 87.19L76.49 108.16L74.49 108.16Q74.03 108.16 73.72 108.00Q73.40 107.85 73.11 107.49L73.11 107.49L62.17 93.51Q62.25 94.47 62.25 95.28L62.25 95.28L62.25 108.16L58.82 108.16L58.82 87.19L60.86 87.19Q61.11 87.19 61.29 87.21Q61.47 87.23 61.61 87.30Q61.75 87.36 61.88 87.49Q62.01 87.61 62.17 87.81L62.17 87.81L73.16 101.85Q73.11 101.34 73.08 100.85Q73.06 100.36 73.06 99.93L73.06 99.93L73.06 87.19ZM87.18 93.05L87.18 93.05Q88.83 93.05 90.19 93.58Q91.54 94.12 92.51 95.11Q93.47 96.09 93.99 97.51Q94.52 98.93 94.52 100.69L94.52 100.69Q94.52 102.46 93.99 103.88Q93.47 105.30 92.51 106.30Q91.54 107.30 90.19 107.84Q88.83 108.37 87.18 108.37L87.18 108.37Q85.51 108.37 84.15 107.84Q82.79 107.30 81.82 106.30Q80.86 105.30 80.33 103.88Q79.80 102.46 79.80 100.69L79.80 100.69Q79.80 98.93 80.33 97.51Q80.86 96.09 81.82 95.11Q82.79 94.12 84.15 93.58Q85.51 93.05 87.18 93.05ZM87.18 105.62L87.18 105.62Q89.03 105.62 89.93 104.37Q90.82 103.12 90.82 100.72L90.82 100.72Q90.82 98.31 89.93 97.05Q89.03 95.79 87.18 95.79L87.18 95.79Q85.29 95.79 84.39 97.06Q83.48 98.33 83.48 100.72L83.48 100.72Q83.48 103.11 84.39 104.36Q85.29 105.62 87.18 105.62ZM102.22 108.39L102.22 108.39Q100.27 108.39 99.24 107.29Q98.20 106.20 98.20 104.27L98.20 104.27L98.20 95.96L96.68 95.96Q96.39 95.96 96.18 95.77Q95.98 95.58 95.98 95.21L95.98 95.21L95.98 93.79L98.37 93.40L99.13 89.34Q99.20 89.05 99.40 88.89Q99.61 88.73 99.92 88.73L99.92 88.73L101.78 88.73L101.78 93.41L105.75 93.41L105.75 95.96L101.78 95.96L101.78 104.02Q101.78 104.72 102.12 105.11Q102.46 105.50 103.06 105.50L103.06 105.50Q103.39 105.50 103.61 105.42Q103.84 105.34 104.01 105.26Q104.17 105.17 104.30 105.09Q104.43 105.01 104.56 105.01L104.56 105.01Q104.72 105.01 104.83 105.09Q104.93 105.17 105.04 105.33L105.04 105.33L106.12 107.07Q105.33 107.72 104.32 108.05Q103.30 108.39 102.22 108.39ZM111.63 86.61L111.63 94.87Q112.50 94.06 113.54 93.55Q114.58 93.05 115.99 93.05L115.99 93.05Q117.21 93.05 118.15 93.46Q119.09 93.87 119.72 94.62Q120.35 95.37 120.68 96.40Q121.01 97.44 121.01 98.69L121.01 98.69L121.01 108.16L117.43 108.16L117.43 98.69Q117.43 97.32 116.80 96.58Q116.18 95.83 114.90 95.83L114.90 95.83Q113.97 95.83 113.16 96.25Q112.35 96.67 111.63 97.40L111.63 97.40L111.63 108.16L108.04 108.16L108.04 86.61L111.63 86.61ZM124.52 93.28L128.11 93.28L128.11 108.16L124.52 108.16L124.52 93.28ZM128.61 88.94L128.61 88.94Q128.61 89.41 128.42 89.81Q128.23 90.22 127.92 90.52Q127.60 90.83 127.18 91.01Q126.76 91.19 126.29 91.19L126.29 91.19Q125.82 91.19 125.41 91.01Q124.99 90.83 124.69 90.52Q124.39 90.22 124.20 89.81Q124.02 89.41 124.02 88.94L124.02 88.94Q124.02 88.47 124.20 88.04Q124.39 87.62 124.69 87.32Q124.99 87.02 125.41 86.83Q125.82 86.65 126.29 86.65L126.29 86.65Q126.76 86.65 127.18 86.83Q127.60 87.02 127.92 87.32Q128.23 87.62 128.42 88.04Q128.61 88.47 128.61 88.94ZM134.87 93.93L135.12 95.11Q135.57 94.66 136.07 94.27Q136.57 93.89 137.12 93.62Q137.68 93.35 138.32 93.20Q138.96 93.05 139.71 93.05L139.71 93.05Q140.93 93.05 141.87 93.46Q142.82 93.87 143.45 94.62Q144.08 95.37 144.40 96.40Q144.73 97.44 144.73 98.69L144.73 98.69L144.73 108.16L141.15 108.16L141.15 98.69Q141.15 97.32 140.52 96.58Q139.90 95.83 138.62 95.83L138.62 95.83Q137.70 95.83 136.88 96.25Q136.07 96.67 135.35 97.40L135.35 97.40L135.35 108.16L131.77 108.16L131.77 93.28L133.96 93.28Q134.65 93.28 134.87 93.93L134.87 93.93ZM153.56 100.36L153.56 100.36Q154.23 100.36 154.72 100.17Q155.21 99.99 155.54 99.67Q155.87 99.35 156.03 98.91Q156.20 98.46 156.20 97.92L156.20 97.92Q156.20 96.82 155.54 96.17Q154.88 95.53 153.56 95.53L153.56 95.53Q152.24 95.53 151.58 96.17Q150.92 96.82 150.92 97.92L150.92 97.92Q150.92 98.44 151.09 98.89Q151.25 99.34 151.58 99.67Q151.91 99.99 152.41 100.17Q152.91 100.36 153.56 100.36ZM157.61 108.82L157.61 108.82Q157.61 108.39 157.34 108.11Q157.08 107.84 156.63 107.69Q156.18 107.53 155.58 107.46Q154.98 107.39 154.31 107.35Q153.63 107.32 152.91 107.29Q152.20 107.26 151.52 107.17L151.52 107.17Q150.92 107.50 150.55 107.95Q150.18 108.40 150.18 109.00L150.18 109.00Q150.18 109.39 150.38 109.73Q150.57 110.07 151.00 110.32Q151.43 110.56 152.11 110.70Q152.79 110.84 153.78 110.84L153.78 110.84Q154.78 110.84 155.50 110.69Q156.23 110.53 156.70 110.27Q157.17 110.00 157.39 109.63Q157.61 109.26 157.61 108.82ZM156.89 93.79L161.17 93.79L161.17 95.12Q161.17 95.76 160.40 95.90L160.40 95.90L159.07 96.15Q159.37 96.92 159.37 97.83L159.37 97.83Q159.37 98.93 158.93 99.83Q158.49 100.72 157.71 101.34Q156.92 101.96 155.86 102.31Q154.79 102.65 153.56 102.65L153.56 102.65Q153.12 102.65 152.72 102.60Q152.31 102.56 151.92 102.49L151.92 102.49Q151.23 102.91 151.23 103.43L151.23 103.43Q151.23 103.88 151.64 104.09Q152.05 104.30 152.73 104.39Q153.41 104.47 154.28 104.50Q155.15 104.52 156.07 104.59Q156.98 104.66 157.85 104.84Q158.72 105.02 159.40 105.42Q160.08 105.81 160.50 106.48Q160.91 107.16 160.91 108.21L160.91 108.21Q160.91 109.20 160.43 110.13Q159.94 111.06 159.02 111.78Q158.10 112.51 156.76 112.95Q155.42 113.39 153.70 113.39L153.70 113.39Q152.02 113.39 150.78 113.06Q149.53 112.74 148.70 112.19Q147.88 111.65 147.47 110.94Q147.06 110.23 147.06 109.46L147.06 109.46Q147.06 108.42 147.69 107.71Q148.33 107.01 149.43 106.59L149.43 106.59Q148.83 106.29 148.48 105.78Q148.14 105.27 148.14 104.44L148.14 104.44Q148.14 104.11 148.26 103.76Q148.38 103.40 148.62 103.05Q148.86 102.70 149.22 102.39Q149.59 102.08 150.08 101.83L150.08 101.83Q148.95 101.23 148.30 100.21Q147.66 99.20 147.66 97.83L147.66 97.83Q147.66 96.73 148.10 95.84Q148.54 94.95 149.33 94.32Q150.12 93.69 151.20 93.35Q152.28 93.02 153.56 93.02L153.56 93.02Q154.52 93.02 155.36 93.21Q156.20 93.41 156.89 93.79L156.89 93.79ZM190.84 87.19L193.78 87.19L193.78 108.16L190.35 108.16L190.35 94.61Q190.35 93.80 190.43 92.86L190.43 92.86L184.10 104.76Q183.65 105.62 182.72 105.62L182.72 105.62L182.17 105.62Q181.24 105.62 180.79 104.76L180.79 104.76L174.38 92.82Q174.43 93.29 174.45 93.76Q174.48 94.22 174.48 94.61L174.48 94.61L174.48 108.16L171.05 108.16L171.05 87.19L173.99 87.19Q174.25 87.19 174.44 87.20Q174.63 87.22 174.78 87.28Q174.93 87.33 175.06 87.46Q175.18 87.60 175.30 87.81L175.30 87.81L181.57 99.46Q181.82 99.92 182.03 100.41Q182.24 100.91 182.44 101.43L182.44 101.43Q182.65 100.89 182.86 100.39Q183.08 99.89 183.33 99.43L183.33 99.43L189.52 87.81Q189.64 87.60 189.77 87.46Q189.90 87.33 190.05 87.28Q190.20 87.22 190.39 87.20Q190.58 87.19 190.84 87.19L190.84 87.19ZM207.12 93.28L210.70 93.28L210.70 108.16L208.51 108.16Q207.80 108.16 207.62 107.50L207.62 107.50L207.37 106.31Q206.46 107.24 205.35 107.82Q204.25 108.39 202.76 108.39L202.76 108.39Q201.54 108.39 200.61 107.97Q199.67 107.56 199.03 106.81Q198.39 106.05 198.07 105.02Q197.74 103.98 197.74 102.73L197.74 102.73L197.74 93.28L201.32 93.28L201.32 102.73Q201.32 104.10 201.95 104.84Q202.58 105.59 203.85 105.59L203.85 105.59Q204.77 105.59 205.59 105.18Q206.40 104.76 207.12 104.04L207.12 104.04L207.12 93.28ZM225.84 95.12L224.90 96.43Q224.74 96.63 224.59 96.74Q224.44 96.86 224.15 96.86L224.15 96.86Q223.87 96.86 223.61 96.69Q223.35 96.53 222.99 96.32Q222.62 96.11 222.12 95.94Q221.62 95.77 220.88 95.77L220.88 95.77Q219.94 95.77 219.23 96.11Q218.52 96.45 218.05 97.09Q217.58 97.73 217.35 98.64Q217.11 99.54 217.11 100.69L217.11 100.69Q217.11 101.88 217.37 102.81Q217.62 103.73 218.10 104.36Q218.58 105.00 219.26 105.32Q219.94 105.65 220.80 105.65L220.80 105.65Q221.65 105.65 222.18 105.44Q222.71 105.23 223.07 104.97Q223.44 104.72 223.70 104.51Q223.97 104.30 224.31 104.30L224.31 104.30Q224.74 104.30 224.96 104.63L224.96 104.63L225.99 105.94Q225.39 106.63 224.70 107.11Q224.00 107.58 223.25 107.86Q222.51 108.14 221.72 108.26Q220.93 108.37 220.14 108.37L220.14 108.37Q218.77 108.37 217.55 107.86Q216.33 107.34 215.42 106.36Q214.50 105.37 213.97 103.94Q213.44 102.52 213.44 100.69L213.44 100.69Q213.44 99.05 213.92 97.65Q214.39 96.25 215.30 95.23Q216.21 94.21 217.56 93.63Q218.91 93.05 220.67 93.05L220.67 93.05Q222.33 93.05 223.59 93.58Q224.84 94.12 225.84 95.12L225.84 95.12ZM231.80 86.61L231.80 94.87Q232.67 94.06 233.72 93.55Q234.76 93.05 236.17 93.05L236.17 93.05Q237.38 93.05 238.33 93.46Q239.27 93.87 239.90 94.62Q240.53 95.37 240.86 96.40Q241.18 97.44 241.18 98.69L241.18 98.69L241.18 108.16L237.60 108.16L237.60 98.69Q237.60 97.32 236.98 96.58Q236.35 95.83 235.08 95.83L235.08 95.83Q234.15 95.83 233.34 96.25Q232.53 96.67 231.80 97.40L231.80 97.40L231.80 108.16L228.22 108.16L228.22 86.61L231.80 86.61Z" fill="#0000FF"/></svg>