<svg xmlns="http://www.w3.org/2000/svg" xmlns:xlink="http://www.w3.org/1999/xlink" width="300" height="200" viewBox="0 0 300 200"><rect width="100%" height="100%" fill="#0000FF"/><path d="M101.76 78.67L106.93 78.67L95.93 114.10L89.98 114.10L82.23 89.89Q81.91 89.01 81.65 87.74L81.65 87.74Q81.50 88.35 81.35 88.89Q81.20 89.43 81.03 89.89L81.03 89.89L73.22 114.10L67.24 114.10L56.26 78.67L61.78 78.67Q62.63 78.67 63.21 79.08Q63.78 79.48 63.98 80.17L63.98 80.17L70.01 101.36Q70.20 102.14 70.39 103.06Q70.57 103.98 70.77 104.99L70.77 104.99Q70.96 103.96 71.20 103.05Q71.43 102.14 71.70 101.36L71.70 101.36L78.66 80.17Q78.85 79.60 79.43 79.14Q80.00 78.67 80.84 78.67L80.84 78.67L82.77 78.67Q83.63 78.67 84.17 79.09Q84.71 79.51 84.98 80.17L84.98 80.17L91.91 101.36Q92.43 102.88 92.84 104.86L92.84 104.86Q93.16 102.93 93.55 101.36L93.55 101.36L99.58 80.17Q99.73 79.55 100.33 79.11Q100.93 78.67 101.76 78.67L101.76 78.67ZM116.39 77.69L116.39 91.66Q117.86 90.29 119.62 89.43Q121.38 88.57 123.76 88.57L123.76 88.57Q125.82 88.57 127.41 89.27Q129.00 89.97 130.07 91.23Q131.14 92.49 131.69 94.24Q132.24 95.99 132.24 98.10L132.24 98.10L132.24 114.10L126.19 114.10L126.19 98.10Q126.19 95.80 125.13 94.54Q124.08 93.27 121.92 93.27L121.92 93.27Q120.36 93.27 118.98 93.99Q117.61 94.70 116.39 95.92L116.39 95.92L116.39 114.10L110.33 114.10L110.33 77.69L116.39 77.69ZM151.25 107.61L151.25 103.37Q148.63 103.49 146.84 103.82Q145.05 104.15 143.97 104.67Q142.90 105.18 142.43 105.87Q141.96 106.55 141.96 107.36L141.96 107.36Q141.96 108.95 142.91 109.64Q143.85 110.33 145.37 110.33L145.37 110.33Q147.23 110.33 148.59 109.65Q149.95 108.98 151.25 107.61L151.25 107.61ZM138.46 94.40L137.38 92.47Q141.72 88.50 147.82 88.50L147.82 88.50Q150.02 88.50 151.76 89.22Q153.50 89.94 154.70 91.23Q155.90 92.52 156.53 94.30Q157.15 96.09 157.15 98.22L157.15 98.22L157.15 114.10L154.41 114.10Q153.55 114.10 153.09 113.84Q152.62 113.59 152.35 112.80L152.35 112.80L151.81 110.99Q150.86 111.85 149.95 112.50Q149.04 113.14 148.06 113.59Q147.08 114.03 145.97 114.26Q144.86 114.49 143.51 114.49L143.51 114.49Q141.92 114.49 140.57 114.06Q139.22 113.63 138.24 112.78Q137.26 111.92 136.72 110.65Q136.18 109.37 136.18 107.68L136.18 107.68Q136.18 106.73 136.50 105.78Q136.82 104.84 137.54 103.98Q138.26 103.12 139.42 102.36Q140.57 101.60 142.25 101.04Q143.92 100.48 146.15 100.12Q148.38 99.77 151.25 99.69L151.25 99.69L151.25 98.22Q151.25 95.70 150.17 94.49Q149.09 93.27 147.06 93.27L147.06 93.27Q145.59 93.27 144.62 93.62Q143.65 93.96 142.92 94.39Q142.18 94.82 141.58 95.16Q140.98 95.50 140.25 95.50L140.25 95.50Q139.61 95.50 139.17 95.17Q138.73 94.84 138.46 94.40L138.46 94.40ZM171.22 114.49L171.22 114.49Q167.93 114.49 166.18 112.64Q164.43 110.79 164.43 107.53L164.43 107.53L164.43 93.50L161.86 93.50Q161.37 93.50 161.03 93.18Q160.68 92.86 160.68 92.22L160.68 92.22L160.68 89.82L164.72 89.16L166.00 82.30Q166.12 81.81 166.46 81.54Q166.81 81.27 167.35 81.27L167.35 81.27L170.48 81.27L170.48 89.18L177.20 89.18L177.20 93.50L170.48 93.50L170.48 107.12Q170.48 108.29 171.06 108.95Q171.63 109.62 172.64 109.62L172.64 109.62Q173.20 109.62 173.58 109.48Q173.96 109.35 174.24 109.20Q174.52 109.05 174.75 108.92Q174.97 108.78 175.19 108.78L175.19 108.78Q175.46 108.78 175.63 108.92Q175.80 109.05 175.99 109.32L175.99 109.32L177.81 112.26Q176.48 113.36 174.77 113.93Q173.05 114.49 171.22 114.49ZM208.58 88.96L214.63 88.96L214.63 114.10L210.93 114.10Q209.73 114.10 209.41 113.00L209.41 113.00L209.00 110.99Q207.45 112.56 205.59 113.52Q203.73 114.49 201.21 114.49L201.21 114.49Q199.15 114.49 197.57 113.79Q195.99 113.10 194.91 111.82Q193.83 110.55 193.28 108.80Q192.73 107.04 192.73 104.94L192.73 104.94L192.73 88.96L198.78 88.96L198.78 104.94Q198.78 107.24 199.85 108.50Q200.91 109.76 203.04 109.76L203.04 109.76Q204.61 109.76 205.98 109.06Q207.35 108.37 208.58 107.14L208.58 107.14L208.58 88.96ZM226.66 96.31L226.66 107.58Q227.69 108.83 228.90 109.35Q230.12 109.86 231.54 109.86L231.54 109.86Q232.91 109.86 234.01 109.35Q235.11 108.83 235.88 107.78Q236.66 106.73 237.07 105.12Q237.49 103.52 237.49 101.34L237.49 101.34Q237.49 99.13 237.13 97.60Q236.78 96.07 236.12 95.11Q235.46 94.16 234.51 93.72Q233.57 93.27 232.37 93.27L232.37 93.27Q230.48 93.27 229.16 94.07Q227.84 94.87 226.66 96.31L226.66 96.31ZM225.85 90.07L226.34 92.39Q227.89 90.65 229.85 89.58Q231.81 88.50 234.45 88.50L234.45 88.50Q236.51 88.50 238.21 89.35Q239.92 90.21 241.15 91.84Q242.39 93.47 243.06 95.86Q243.74 98.25 243.74 101.34L243.74 101.34Q243.74 104.15 242.98 106.55Q242.22 108.95 240.81 110.72Q239.40 112.48 237.40 113.47Q235.41 114.47 232.93 114.47L232.93 114.47Q230.83 114.47 229.33 113.82Q227.84 113.17 226.66 112.02L226.66 112.02L226.66 122.31L220.61 122.31L220.61 88.96L224.31 88.96Q225.48 88.96 225.85 90.07L225.85 90.07Z" fill="#FFFFFF"/></svg>