<svg xmlns="http://www.w3.org/2000/svg" xmlns:xlink="http://www.w3.org/1999/xlink" width="600" height="400" viewBox="0 0 600 400"><rect width="100%" height="100%" fill="#808080"/><path d="M206.47 158.65L216.50 158.65L195.17 227.34L183.63 227.34L168.62 180.41Q168.00 178.70 167.48 176.23L167.48 176.23Q167.19 177.41 166.91 178.46Q166.62 179.50 166.29 180.41L166.29 180.41L151.14 227.34L139.55 227.34L118.27 158.65L128.95 158.65Q130.62 158.65 131.73 159.44Q132.85 160.22 133.23 161.55L133.23 161.55L144.91 202.64Q145.29 204.16 145.65 205.94Q146.00 207.72 146.39 209.67L146.39 209.67Q146.77 207.67 147.22 205.91Q147.67 204.16 148.19 202.64L148.19 202.64L161.68 161.55Q162.06 160.46 163.18 159.55Q164.29 158.65 165.91 158.65L165.91 158.65L169.66 158.65Q171.32 158.65 172.37 159.46Q173.41 160.27 173.94 161.55L173.94 161.55L187.38 202.64Q188.38 205.58 189.18 209.43L189.18 209.43Q189.80 205.68 190.56 202.64L190.56 202.64L202.25 161.55Q202.53 160.36 203.69 159.51Q204.86 158.65 206.47 158.65L206.47 158.65ZM234.83 156.75L234.83 183.83Q237.68 181.17 241.10 179.50Q244.52 177.84 249.13 177.84L249.13 177.84Q253.12 177.84 256.21 179.19Q259.29 180.55 261.36 183.00Q263.43 185.44 264.49 188.84Q265.56 192.23 265.56 196.32L265.56 196.32L265.56 227.34L253.83 227.34L253.83 196.32Q253.83 191.85 251.79 189.41Q249.75 186.96 245.56 186.96L245.56 186.96Q242.53 186.96 239.87 188.34Q237.21 189.72 234.83 192.09L234.83 192.09L234.83 227.34L223.10 227.34L223.10 156.75L234.83 156.75ZM302.42 214.75L302.42 206.53Q297.34 206.77 293.87 207.41Q290.40 208.05 288.31 209.05Q286.22 210.05 285.32 211.38Q284.42 212.71 284.42 214.27L284.42 214.27Q284.42 217.36 286.25 218.69Q288.08 220.02 291.02 220.02L291.02 220.02Q294.63 220.02 297.27 218.72Q299.90 217.41 302.42 214.75L302.42 214.75ZM277.63 189.15L275.54 185.39Q283.94 177.70 295.77 177.70L295.77 177.70Q300.05 177.70 303.42 179.10Q306.79 180.50 309.12 183.00Q311.45 185.49 312.66 188.96Q313.87 192.42 313.87 196.56L313.87 196.56L313.87 227.34L308.55 227.34Q306.89 227.34 305.99 226.84Q305.08 226.34 304.56 224.82L304.56 224.82L303.51 221.30Q301.66 222.97 299.90 224.22Q298.15 225.48 296.25 226.34Q294.35 227.19 292.19 227.65Q290.02 228.10 287.41 228.10L287.41 228.10Q284.32 228.10 281.71 227.27Q279.10 226.43 277.20 224.77Q275.30 223.11 274.25 220.64Q273.21 218.17 273.21 214.89L273.21 214.89Q273.21 213.04 273.83 211.21Q274.44 209.38 275.85 207.72Q277.25 206.06 279.48 204.58Q281.71 203.11 284.97 202.02Q288.22 200.93 292.54 200.24Q296.87 199.55 302.42 199.41L302.42 199.41L302.42 196.56Q302.42 191.66 300.33 189.31Q298.24 186.96 294.30 186.96L294.30 186.96Q291.45 186.96 289.57 187.63Q287.70 188.29 286.27 189.12Q284.85 189.95 283.68 190.62Q282.52 191.28 281.09 191.28L281.09 191.28Q279.86 191.28 279.00 190.64Q278.15 190.00 277.63 189.15L277.63 189.15ZM341.13 228.10L341.13 228.10Q334.77 228.10 331.37 224.51Q327.98 220.92 327.98 214.61L327.98 214.61L327.98 187.39L322.99 187.39Q322.04 187.39 321.37 186.77Q320.71 186.15 320.71 184.92L320.71 184.92L320.71 180.26L328.55 178.98L331.02 165.68Q331.25 164.73 331.92 164.21Q332.58 163.69 333.63 163.69L333.63 163.69L339.71 163.69L339.71 179.03L352.72 179.03L352.72 187.39L339.71 187.39L339.71 213.80Q339.71 216.08 340.83 217.36Q341.94 218.64 343.89 218.64L343.89 218.64Q344.98 218.64 345.72 218.38Q346.45 218.12 347.00 217.84Q347.55 217.55 347.97 217.29Q348.40 217.03 348.83 217.03L348.83 217.03Q349.35 217.03 349.68 217.29Q350.02 217.55 350.40 218.07L350.40 218.07L353.91 223.77Q351.35 225.91 348.02 227.00Q344.70 228.10 341.13 228.10ZM413.57 178.60L425.30 178.60L425.30 227.34L418.13 227.34Q415.80 227.34 415.19 225.20L415.19 225.20L414.38 221.30Q411.39 224.34 407.78 226.22Q404.17 228.10 399.27 228.10L399.27 228.10Q395.28 228.10 392.22 226.74Q389.16 225.39 387.07 222.92Q384.98 220.45 383.91 217.05Q382.84 213.66 382.84 209.57L382.84 209.57L382.84 178.60L394.57 178.60L394.57 209.57Q394.57 214.04 396.64 216.48Q398.70 218.93 402.84 218.93L402.84 218.93Q405.88 218.93 408.54 217.58Q411.20 216.22 413.57 213.85L413.57 213.85L413.57 178.60ZM448.63 192.85L448.63 214.70Q450.62 217.12 452.97 218.12Q455.32 219.12 458.08 219.12L458.08 219.12Q460.74 219.12 462.88 218.12Q465.01 217.12 466.51 215.08Q468.01 213.04 468.81 209.93Q469.62 206.82 469.62 202.59L469.62 202.59Q469.62 198.31 468.93 195.34Q468.24 192.38 466.96 190.52Q465.68 188.67 463.85 187.82Q462.02 186.96 459.69 186.96L459.69 186.96Q456.04 186.96 453.47 188.50Q450.91 190.05 448.63 192.85L448.63 192.85ZM447.06 180.74L448.01 185.25Q451.00 181.88 454.80 179.79Q458.60 177.70 463.73 177.70L463.73 177.70Q467.72 177.70 471.02 179.36Q474.32 181.02 476.72 184.18Q479.12 187.34 480.43 191.97Q481.73 196.60 481.73 202.59L481.73 202.59Q481.73 208.05 480.26 212.71Q478.79 217.36 476.06 220.78Q473.33 224.20 469.46 226.13Q465.58 228.05 460.79 228.05L460.79 228.05Q456.70 228.05 453.80 226.79Q450.91 225.53 448.63 223.30L448.63 223.30L448.63 243.25L436.89 243.25L436.89 178.60L444.07 178.60Q446.35 178.60 447.06 180.74L447.06 180.74Z" fill="#FFFFFF"/></svg>